<svg xmlns="http://www.w3.org/2000/svg" xmlns:xlink="http://www.w3.org/1999/xlink" width="50" zoomAndPan="magnify" viewBox="0 0 37.5 37.499999" height="50" preserveAspectRatio="xMidYMid meet" version="1.0"><defs><clipPath id="9f98dad0b6"><path d="M 3.699219 5.550781 L 33.304688 5.550781 L 33.304688 31.457031 L 3.699219 31.457031 Z M 3.699219 5.550781 " clip-rule="nonzero"/></clipPath></defs><g clip-path="url(#9f98dad0b6)"><path fill="#ffffff" d="M 33.304688 18.503906 C 33.304688 18.257812 33.257812 18.023438 33.164062 17.796875 C 33.070312 17.570312 32.9375 17.367188 32.765625 17.195312 C 32.589844 17.019531 32.390625 16.886719 32.164062 16.792969 C 31.9375 16.699219 31.699219 16.652344 31.457031 16.652344 L 5.550781 16.652344 C 5.304688 16.652344 5.070312 16.699219 4.84375 16.792969 C 4.617188 16.886719 4.417969 17.019531 4.242188 17.195312 C 4.070312 17.367188 3.933594 17.570312 3.839844 17.796875 C 3.746094 18.023438 3.699219 18.257812 3.699219 18.503906 C 3.699219 18.75 3.746094 18.984375 3.839844 19.210938 C 3.933594 19.4375 4.070312 19.636719 4.242188 19.8125 C 4.417969 19.984375 4.617188 20.117188 4.84375 20.210938 C 5.070312 20.308594 5.304688 20.355469 5.550781 20.355469 L 31.457031 20.355469 C 31.699219 20.355469 31.9375 20.308594 32.164062 20.214844 C 32.390625 20.117188 32.589844 19.984375 32.765625 19.8125 C 32.9375 19.636719 33.070312 19.4375 33.164062 19.210938 C 33.257812 18.984375 33.304688 18.75 33.304688 18.503906 Z M 31.457031 27.753906 L 18.503906 27.753906 C 18.257812 27.753906 18.023438 27.800781 17.796875 27.894531 C 17.570312 27.988281 17.367188 28.125 17.195312 28.296875 C 17.019531 28.46875 16.886719 28.671875 16.792969 28.898438 C 16.699219 29.125 16.652344 29.359375 16.652344 29.605469 C 16.652344 29.851562 16.699219 30.085938 16.792969 30.3125 C 16.886719 30.539062 17.019531 30.738281 17.195312 30.914062 C 17.367188 31.085938 17.570312 31.222656 17.796875 31.316406 C 18.023438 31.410156 18.257812 31.457031 18.503906 31.457031 L 31.457031 31.457031 C 31.699219 31.457031 31.9375 31.410156 32.164062 31.316406 C 32.390625 31.222656 32.589844 31.085938 32.765625 30.914062 C 32.9375 30.738281 33.070312 30.539062 33.164062 30.3125 C 33.257812 30.085938 33.304688 29.851562 33.304688 29.605469 C 33.304688 29.359375 33.257812 29.125 33.164062 28.898438 C 33.070312 28.671875 32.9375 28.46875 32.765625 28.296875 C 32.589844 28.125 32.390625 27.988281 32.164062 27.894531 C 31.9375 27.800781 31.699219 27.753906 31.457031 27.753906 Z M 5.550781 9.25 L 18.503906 9.25 C 18.75 9.25 18.984375 9.203125 19.210938 9.109375 C 19.4375 9.015625 19.636719 8.882812 19.8125 8.710938 C 19.984375 8.535156 20.117188 8.335938 20.210938 8.109375 C 20.308594 7.882812 20.355469 7.648438 20.355469 7.402344 C 20.355469 7.15625 20.308594 6.917969 20.210938 6.691406 C 20.117188 6.464844 19.984375 6.265625 19.8125 6.09375 C 19.636719 5.917969 19.4375 5.785156 19.210938 5.691406 C 18.984375 5.597656 18.75 5.550781 18.503906 5.550781 L 5.550781 5.550781 C 5.304688 5.550781 5.070312 5.597656 4.84375 5.691406 C 4.617188 5.785156 4.417969 5.917969 4.242188 6.09375 C 4.070312 6.265625 3.933594 6.464844 3.839844 6.691406 C 3.746094 6.917969 3.699219 7.15625 3.699219 7.402344 C 3.699219 7.648438 3.746094 7.882812 3.839844 8.109375 C 3.933594 8.335938 4.070312 8.535156 4.242188 8.710938 C 4.417969 8.882812 4.617188 9.015625 4.84375 9.109375 C 5.070312 9.203125 5.304688 9.25 5.550781 9.25 Z M 5.550781 9.25 " fill-opacity="1" fill-rule="nonzero"/></g></svg>