<svg xmlns="http://www.w3.org/2000/svg" xmlns:xlink="http://www.w3.org/1999/xlink" width="50" zoomAndPan="magnify" viewBox="0 0 37.5 37.499999" height="50" preserveAspectRatio="xMidYMid meet" version="1.0"><defs><clipPath id="bfb1be2907"><path d="M 3.699219 3.699219 L 33.304688 3.699219 L 33.304688 33.304688 L 3.699219 33.304688 Z M 3.699219 3.699219 " clip-rule="nonzero"/></clipPath></defs><g clip-path="url(#bfb1be2907)"><path fill="#ffffff" d="M 15.699219 3.753906 C 9.042969 3.828125 3.707031 9.28125 3.78125 15.9375 C 3.851562 22.59375 9.308594 27.929688 15.964844 27.855469 C 18.421875 27.828125 20.8125 27.050781 22.816406 25.625 L 29.699219 32.507812 C 30.488281 33.285156 31.757812 33.277344 32.535156 32.488281 C 33.304688 31.707031 33.304688 30.453125 32.535156 29.671875 L 25.652344 22.789062 C 29.511719 17.363281 28.238281 9.839844 22.816406 5.984375 C 20.738281 4.507812 18.246094 3.726562 15.699219 3.753906 Z M 15.554688 5.839844 C 21.050781 5.6875 25.628906 10.015625 25.785156 15.511719 C 25.785156 15.609375 25.789062 15.707031 25.789062 15.804688 C 25.789062 21.300781 21.332031 25.761719 15.835938 25.765625 C 10.335938 25.765625 5.878906 21.3125 5.875 15.8125 C 5.875 15.808594 5.875 15.808594 5.875 15.804688 C 5.871094 10.410156 10.160156 5.992188 15.554688 5.839844 Z M 15.554688 5.839844 " fill-opacity="1" fill-rule="nonzero"/></g><path fill="#ffffff" d="M 13.144531 8.421875 C 13.6875 8.226562 14.289062 8.507812 14.484375 9.054688 C 14.675781 9.59375 14.398438 10.191406 13.859375 10.390625 C 11.585938 11.21875 10.070312 13.382812 10.070312 15.804688 C 10.070312 16.382812 9.601562 16.851562 9.019531 16.851562 C 8.441406 16.851562 7.972656 16.382812 7.972656 15.804688 C 7.972656 12.5 10.039062 9.550781 13.144531 8.421875 Z M 13.144531 8.421875 " fill-opacity="1" fill-rule="nonzero"/></svg>