<svg xmlns="http://www.w3.org/2000/svg" xmlns:xlink="http://www.w3.org/1999/xlink" width="50" zoomAndPan="magnify" viewBox="0 0 37.5 37.499999" height="50" preserveAspectRatio="xMidYMid meet" version="1.0"><defs><clipPath id="57349de71c"><path d="M 8.160156 3.699219 L 28.882812 3.699219 L 28.882812 33.304688 L 8.160156 33.304688 Z M 8.160156 3.699219 " clip-rule="nonzero"/></clipPath></defs><g clip-path="url(#57349de71c)"><path fill="#ffffff" d="M 27.445312 11.265625 L 23.3125 11.265625 L 23.3125 8.308594 C 23.3125 8.199219 23.347656 6.382812 22.097656 5.0625 C 21.242188 4.242188 20.03125 3.78125 18.5 3.78125 C 16.964844 3.78125 15.753906 4.207031 14.898438 5.097656 C 13.648438 6.417969 13.648438 8.199219 13.6875 8.34375 L 13.6875 11.300781 L 9.550781 11.300781 L 8.160156 33.226562 L 28.835938 33.226562 Z M 14.042969 11.265625 L 14.042969 8.273438 C 14.042969 8.058594 14.078125 6.453125 15.183594 5.347656 C 15.933594 4.5625 17.074219 4.136719 18.5 4.136719 C 19.925781 4.136719 21.066406 4.527344 21.8125 5.347656 C 22.917969 6.488281 22.953125 8.058594 22.953125 8.273438 L 22.953125 11.265625 L 18.5 11.265625 C 18.5 11.265625 14.042969 11.265625 14.042969 11.265625 Z M 14.042969 11.265625 " fill-opacity="1" fill-rule="nonzero"/></g></svg>