<svg xmlns="http://www.w3.org/2000/svg" xmlns:xlink="http://www.w3.org/1999/xlink" width="500" zoomAndPan="magnify" viewBox="0 0 375 112.499997" height="150" preserveAspectRatio="xMidYMid meet" version="1.0"><defs><g/><clipPath id="7c01939f51"><path d="M 17 13.425781 L 109.820312 13.425781 L 109.820312 98.257812 L 17 98.257812 Z M 17 13.425781 " clip-rule="nonzero"/></clipPath><clipPath id="1c347634c8"><path d="M 5.640625 63 L 23 63 L 23 79 L 5.640625 79 Z M 5.640625 63 " clip-rule="nonzero"/></clipPath></defs><path fill="#ffffff" d="M 105.308594 61.226562 C 104.921875 60.925781 104.449219 60.710938 103.972656 60.539062 C 113.40625 50.761719 104.40625 40.507812 104.40625 40.507812 C 101.605469 37.882812 100.140625 33.617188 101.90625 30.171875 C 102.59375 28.835938 102.855469 25.863281 100.269531 23.453125 C 97.167969 20.566406 91.570312 18.371094 83.257812 20.4375 C 79.59375 21.34375 75.804688 20.222656 73.003906 17.726562 C 70.894531 15.828125 67.707031 14.496094 62.96875 14.882812 C 55.648438 15.441406 34.542969 24.832031 36.136719 38.3125 C 36.523438 41.457031 38.289062 43.179688 40.917969 44.085938 C 40.832031 44.34375 40.746094 44.6875 40.574219 45.117188 C 40.097656 45.160156 39.839844 45.203125 39.796875 45.203125 C 38.460938 45.417969 37.515625 46.667969 37.730469 48.003906 C 37.859375 48.90625 38.460938 49.597656 39.28125 49.941406 C 36.480469 51.234375 34.5 54.121094 34.5 57.394531 C 34.5 59.761719 35.492188 61.871094 37.128906 63.378906 C 37.039062 64.285156 36.996094 65.230469 36.996094 66.136719 C 34.671875 67 32.820312 68.503906 31.742188 70.488281 C 30.582031 72.597656 30.449219 74.964844 31.355469 76.6875 C 32.042969 77.980469 33.550781 78.84375 35.535156 79.101562 C 35.964844 79.144531 36.394531 79.1875 36.824219 79.1875 C 37.34375 79.1875 37.816406 79.144531 38.332031 79.058594 C 38.589844 79.960938 38.894531 80.910156 39.238281 81.773438 L 37.300781 83.105469 C 37.257812 83.148438 36.09375 84.011719 34.371094 83.753906 C 32.777344 83.496094 31.269531 82.375 29.804688 80.351562 C 29.761719 80.308594 29.761719 80.265625 29.71875 80.265625 C 29.160156 79.574219 28.125 79.359375 26.746094 79.746094 C 25.539062 80.089844 24.207031 80.78125 22.914062 81.773438 C 21.664062 82.761719 20.585938 83.882812 19.984375 84.957031 C 19.253906 86.207031 19.167969 87.285156 19.726562 87.972656 C 19.984375 88.273438 22.914062 91.894531 27.609375 94.003906 C 28.597656 94.433594 29.546875 94.605469 30.449219 94.605469 C 34.414062 94.605469 37.601562 91.246094 37.773438 91.074219 L 41.820312 86.769531 C 45.441406 92.152344 51.511719 96.070312 61.246094 96.890625 C 77.183594 98.226562 85.496094 88.1875 89.804688 76.644531 C 90.105469 77.9375 90.75 79.015625 91.785156 79.746094 C 95.015625 82.117188 100.699219 79.832031 104.40625 74.664062 C 108.152344 69.667969 108.582031 63.59375 105.308594 61.226562 Z M 105.308594 61.226562 " fill-opacity="1" fill-rule="nonzero"/><g clip-path="url(#7c01939f51)"><path fill="#ffffff" d="M 64.046875 98.527344 C 63.097656 98.527344 62.152344 98.484375 61.160156 98.398438 C 52.589844 97.664062 46.042969 94.519531 41.734375 89.050781 L 38.808594 92.152344 C 38.417969 92.539062 35.015625 96.113281 30.496094 96.113281 C 29.332031 96.113281 28.167969 95.855469 27.089844 95.382812 C 22.09375 93.140625 18.996094 89.351562 18.648438 88.921875 C 18.089844 88.1875 17.402344 86.726562 18.777344 84.355469 C 19.46875 83.148438 20.632812 81.859375 22.050781 80.78125 C 23.472656 79.703125 24.980469 78.886719 26.359375 78.5 C 28.988281 77.765625 30.277344 78.800781 30.796875 79.488281 C 30.839844 79.53125 30.882812 79.574219 30.925781 79.660156 C 32.132812 81.339844 33.335938 82.289062 34.542969 82.460938 C 35.664062 82.632812 36.394531 82.117188 36.4375 82.074219 L 36.480469 82.03125 L 37.558594 81.296875 C 37.472656 81.082031 37.386719 80.824219 37.34375 80.609375 C 36.652344 80.652344 36.007812 80.609375 35.359375 80.523438 C 32.949219 80.222656 31.054688 79.058594 30.148438 77.378906 C 28.988281 75.269531 29.160156 72.382812 30.539062 69.839844 C 31.613281 67.816406 33.378906 66.222656 35.664062 65.1875 C 35.664062 64.757812 35.707031 64.328125 35.75 63.898438 C 34.113281 62.132812 33.164062 59.761719 33.164062 57.351562 C 33.164062 54.335938 34.628906 51.492188 36.996094 49.683594 C 36.695312 49.210938 36.480469 48.691406 36.394531 48.175781 C 36.222656 47.183594 36.480469 46.152344 37.085938 45.332031 C 37.386719 44.902344 37.773438 44.558594 38.203125 44.300781 C 36.222656 43.007812 35.101562 41.070312 34.800781 38.527344 C 34.328125 34.4375 35.664062 30.429688 38.808594 26.597656 C 45.3125 18.628906 57.757812 13.933594 62.882812 13.546875 C 67.449219 13.203125 71.195312 14.277344 73.953125 16.777344 C 76.496094 19.058594 79.855469 19.964844 82.953125 19.1875 C 93.035156 16.691406 98.761719 20.179688 101.261719 22.503906 C 104.40625 25.390625 104.144531 29.09375 103.199219 30.90625 C 101.691406 33.789062 103.15625 37.453125 105.394531 39.605469 L 105.480469 39.691406 C 105.566406 39.777344 114.398438 50.070312 106.214844 60.234375 C 110.046875 63.121094 109.789062 69.882812 105.566406 75.699219 C 101.304688 81.554688 94.929688 83.925781 91.007812 81.082031 C 90.621094 80.824219 90.320312 80.523438 90.019531 80.179688 C 84.589844 92.195312 75.675781 98.527344 64.046875 98.527344 Z M 42.039062 84.699219 L 42.984375 86.121094 C 46.773438 91.722656 52.976562 94.953125 61.375 95.640625 C 74.167969 96.71875 83.300781 90.214844 88.511719 76.300781 L 90.105469 72.125 L 91.179688 76.472656 C 91.441406 77.507812 91.914062 78.28125 92.601562 78.757812 C 95.1875 80.609375 100.097656 78.453125 103.285156 74.019531 C 106.515625 69.582031 107.074219 64.242188 104.492188 62.390625 C 104.1875 62.175781 103.886719 62.042969 103.542969 61.914062 L 101.433594 61.226562 L 102.984375 59.632812 C 111.210938 51.148438 104.101562 42.316406 103.414062 41.542969 C 99.882812 38.183594 98.761719 33.273438 100.699219 29.613281 C 101.042969 28.964844 101.5625 26.597656 99.363281 24.574219 C 97.253906 22.632812 92.429688 19.707031 83.601562 21.902344 C 79.636719 22.894531 75.332031 21.773438 72.101562 18.84375 C 69.90625 16.863281 66.847656 16.042969 63.097656 16.347656 C 58.535156 16.691406 46.859375 21.171875 40.917969 28.40625 C 38.289062 31.550781 37.128906 34.867188 37.515625 38.183594 C 37.773438 40.507812 39.023438 41.972656 41.347656 42.75 L 42.640625 43.179688 L 42.210938 44.472656 C 42.125 44.730469 42.039062 45.03125 41.90625 45.460938 L 41.605469 46.367188 L 40.660156 46.410156 C 40.269531 46.410156 40.011719 46.453125 40.011719 46.453125 C 39.710938 46.496094 39.496094 46.625 39.324219 46.882812 C 39.152344 47.097656 39.066406 47.402344 39.109375 47.703125 C 39.152344 48.089844 39.410156 48.390625 39.796875 48.5625 L 40.917969 48.996094 L 40.488281 50.804688 L 39.882812 51.105469 C 37.472656 52.226562 35.921875 54.679688 35.921875 57.308594 C 35.921875 59.203125 36.695312 60.96875 38.074219 62.304688 L 38.546875 62.734375 L 38.503906 63.378906 C 38.460938 64.285156 38.375 65.1875 38.375 66.09375 L 38.332031 67.042969 L 37.472656 67.386719 C 35.402344 68.160156 33.855469 69.453125 32.949219 71.132812 C 32.042969 72.8125 31.871094 74.75 32.5625 76 C 33.035156 76.863281 34.199219 77.507812 35.707031 77.722656 C 36.4375 77.808594 37.257812 77.808594 38.160156 77.679688 L 39.367188 77.507812 L 39.667969 78.671875 C 39.925781 79.574219 40.183594 80.4375 40.53125 81.253906 L 40.917969 82.289062 L 38.074219 84.269531 C 37.773438 84.484375 36.265625 85.476562 34.113281 85.175781 C 32.132812 84.871094 30.320312 83.539062 28.640625 81.210938 L 28.597656 81.167969 C 28.46875 80.996094 27.996094 80.867188 27.089844 81.125 C 26.058594 81.425781 24.894531 82.03125 23.730469 82.890625 C 22.570312 83.753906 21.707031 84.742188 21.148438 85.648438 C 20.675781 86.464844 20.675781 86.984375 20.761719 87.113281 C 20.890625 87.242188 23.644531 90.773438 28.125 92.753906 C 28.859375 93.097656 29.632812 93.226562 30.40625 93.226562 C 33.8125 93.226562 36.652344 90.171875 36.695312 90.171875 Z M 42.039062 84.699219 " fill-opacity="1" fill-rule="nonzero"/></g><path fill="#ffffff" d="M 41.046875 43.652344 C 41.046875 43.652344 23.429688 93.832031 61.246094 97.019531 C 97.039062 100.035156 94.410156 45.503906 94.410156 45.503906 C 94.410156 45.503906 93.636719 26.683594 71.714844 25.390625 C 47.335938 24.011719 41.046875 43.652344 41.046875 43.652344 Z M 41.046875 43.652344 " fill-opacity="1" fill-rule="nonzero"/><path fill="#000000" d="M 55.476562 59.332031 C 55.304688 59.332031 55.132812 59.246094 55 59.117188 C 53.148438 57.046875 49.445312 57.609375 49.402344 57.609375 C 49.058594 57.652344 48.757812 57.4375 48.714844 57.089844 C 48.671875 56.746094 48.886719 56.445312 49.230469 56.402344 C 49.402344 56.359375 53.625 55.714844 55.949219 58.296875 C 56.164062 58.554688 56.164062 58.945312 55.90625 59.160156 C 55.777344 59.289062 55.605469 59.332031 55.476562 59.332031 Z M 55.476562 59.332031 " fill-opacity="1" fill-rule="nonzero"/><path fill="#000000" d="M 69.171875 64.457031 C 68.871094 64.457031 68.570312 64.199219 68.570312 63.898438 C 68.527344 63.550781 68.785156 63.25 69.128906 63.25 L 98.203125 60.796875 C 98.546875 60.753906 98.847656 61.011719 98.847656 61.355469 C 98.890625 61.699219 98.632812 62 98.289062 62 L 69.214844 64.457031 C 69.171875 64.457031 69.171875 64.457031 69.171875 64.457031 Z M 69.171875 64.457031 " fill-opacity="1" fill-rule="nonzero"/><path fill="#000000" d="M 48.886719 53.6875 C 48.109375 53.6875 47.335938 53.300781 46.859375 52.613281 C 44.75 49.46875 40.617188 50.027344 40.574219 50.070312 C 39.238281 50.285156 37.988281 49.339844 37.773438 48.003906 C 37.558594 46.667969 38.503906 45.417969 39.839844 45.203125 C 40.140625 45.160156 47.121094 44.171875 50.953125 49.855469 C 51.726562 50.976562 51.425781 52.527344 50.308594 53.257812 C 49.832031 53.558594 49.359375 53.6875 48.886719 53.6875 Z M 48.886719 53.6875 " fill-opacity="1" fill-rule="nonzero"/><path fill="#000000" d="M 68.136719 56.660156 C 67.363281 56.875 66.542969 56.703125 65.898438 56.144531 C 63.011719 53.6875 59.179688 55.324219 59.136719 55.367188 C 57.886719 55.929688 56.421875 55.367188 55.90625 54.121094 C 55.347656 52.871094 55.90625 51.40625 57.15625 50.890625 C 57.414062 50.761719 63.875 47.960938 69.085938 52.441406 C 70.121094 53.300781 70.25 54.894531 69.34375 55.929688 C 69.042969 56.273438 68.613281 56.53125 68.136719 56.660156 Z M 68.136719 56.660156 " fill-opacity="1" fill-rule="nonzero"/><path fill="#000000" d="M 49.617188 80.351562 C 49.273438 80.351562 48.886719 80.308594 48.496094 80.265625 C 44.578125 79.660156 43.761719 76.601562 43.761719 76.472656 C 43.71875 76.214844 43.804688 75.957031 44.019531 75.828125 C 44.878906 75.269531 46.300781 74.320312 46.558594 74.105469 C 46.6875 73.976562 46.90625 73.933594 47.078125 73.976562 C 47.121094 73.976562 50.4375 74.75 52.460938 73.761719 C 52.761719 73.632812 53.0625 73.71875 53.234375 73.976562 C 53.234375 73.976562 54.398438 75.785156 55.390625 76.949219 C 55.5625 77.164062 55.5625 77.507812 55.390625 77.765625 C 55.261719 77.894531 53.0625 80.351562 49.617188 80.351562 Z M 45.050781 76.558594 C 45.355469 77.25 46.300781 78.671875 48.671875 79.015625 C 51.296875 79.445312 53.320312 77.980469 54.097656 77.292969 C 53.496094 76.472656 52.847656 75.570312 52.503906 75.050781 C 50.480469 75.785156 47.894531 75.398438 47.035156 75.226562 C 46.558594 75.570312 45.613281 76.214844 45.050781 76.558594 Z M 45.050781 76.558594 " fill-opacity="1" fill-rule="nonzero"/><path fill="#000000" d="M 49.53125 77.722656 C 48.671875 77.722656 47.9375 77.59375 47.378906 77.378906 C 45.828125 76.863281 45.007812 75.914062 45.007812 75.914062 C 44.792969 75.65625 44.792969 75.269531 45.050781 75.050781 C 45.3125 74.835938 45.699219 74.835938 45.914062 75.09375 C 46.042969 75.226562 48.585938 78.023438 53.449219 75.398438 C 53.753906 75.226562 54.140625 75.355469 54.269531 75.65625 C 54.441406 75.957031 54.3125 76.34375 54.011719 76.472656 C 52.289062 77.421875 50.78125 77.722656 49.53125 77.722656 Z M 49.53125 77.722656 " fill-opacity="1" fill-rule="nonzero"/><path fill="#000000" d="M 50.394531 71.304688 C 50.394531 71.304688 48.929688 65.230469 40.746094 65.921875 C 32.5625 66.566406 30.191406 73.242188 31.914062 76.386719 C 33.636719 79.53125 41.777344 80.394531 50.394531 71.304688 Z M 50.394531 71.304688 " fill-opacity="1" fill-rule="nonzero"/><path fill="#000000" d="M 36.824219 79.230469 C 36.394531 79.230469 35.964844 79.1875 35.535156 79.144531 C 33.59375 78.886719 32.042969 77.980469 31.355469 76.730469 C 30.449219 75.007812 30.582031 72.640625 31.742188 70.53125 C 33.335938 67.558594 36.609375 65.707031 40.703125 65.363281 C 49.316406 64.671875 50.996094 71.175781 50.996094 71.21875 L 51.082031 71.5625 L 50.867188 71.820312 C 46.34375 76.515625 41.175781 79.230469 36.824219 79.230469 Z M 41.949219 66.480469 C 41.5625 66.480469 41.175781 66.480469 40.789062 66.523438 C 35.792969 66.910156 33.636719 69.539062 32.820312 71.046875 C 31.871094 72.769531 31.742188 74.75 32.433594 76.085938 C 32.949219 77.035156 34.113281 77.679688 35.664062 77.894531 C 37.214844 78.109375 42.8125 78.238281 49.660156 71.132812 C 49.316406 70.054688 47.59375 66.480469 41.949219 66.480469 Z M 41.949219 66.480469 " fill-opacity="1" fill-rule="nonzero"/><path fill="#ffffff" d="M 29.246094 80.695312 C 30.019531 81.726562 28.640625 84.097656 26.1875 86.035156 C 23.730469 87.972656 21.019531 88.664062 20.242188 87.671875 C 20.242188 87.671875 23.171875 91.417969 27.910156 93.53125 C 32.777344 95.683594 37.34375 90.773438 37.34375 90.773438 L 48.453125 79.015625 C 48.929688 78.5 48.886719 77.722656 48.324219 77.292969 C 47.9375 76.992188 47.378906 76.992188 46.949219 77.25 L 37.644531 83.710938 C 37.6875 83.667969 33.59375 86.855469 29.246094 80.695312 Z M 29.246094 80.695312 " fill-opacity="1" fill-rule="nonzero"/><path fill="#000000" d="M 30.496094 94.691406 C 29.503906 94.691406 28.554688 94.476562 27.695312 94.089844 C 22.957031 91.980469 20.027344 88.363281 19.8125 88.058594 L 20.804688 87.285156 C 21.019531 87.542969 21.664062 87.585938 22.484375 87.371094 C 23.515625 87.070312 24.722656 86.421875 25.886719 85.5625 C 27.046875 84.699219 27.953125 83.667969 28.511719 82.71875 C 28.902344 82.03125 29.074219 81.382812 28.902344 81.125 C 28.902344 81.125 28.859375 81.082031 28.859375 81.082031 L 29.847656 80.351562 C 29.890625 80.394531 29.890625 80.394531 29.933594 80.4375 C 31.355469 82.460938 32.90625 83.582031 34.5 83.839844 C 36.222656 84.097656 37.386719 83.191406 37.429688 83.191406 L 46.730469 76.730469 C 47.378906 76.300781 48.195312 76.300781 48.84375 76.773438 C 49.230469 77.078125 49.488281 77.550781 49.53125 78.066406 C 49.574219 78.585938 49.402344 79.058594 49.058594 79.445312 L 37.945312 91.203125 C 37.902344 91.246094 36.695312 92.496094 34.886719 93.53125 C 33.292969 94.304688 31.871094 94.691406 30.496094 94.691406 Z M 22.007812 88.707031 C 23.257812 89.953125 25.410156 91.765625 28.167969 92.96875 C 32.5625 94.90625 36.867188 90.386719 36.910156 90.34375 L 48.023438 78.542969 C 48.152344 78.410156 48.195312 78.28125 48.152344 78.109375 C 48.152344 77.9375 48.066406 77.808594 47.9375 77.722656 C 47.765625 77.59375 47.507812 77.550781 47.292969 77.722656 L 37.988281 84.183594 C 37.945312 84.226562 36.394531 85.390625 34.15625 85.042969 C 32.648438 84.828125 31.183594 83.96875 29.847656 82.503906 C 29.761719 82.761719 29.632812 83.0625 29.460938 83.363281 C 28.859375 84.441406 27.78125 85.5625 26.53125 86.550781 C 25.28125 87.542969 23.902344 88.230469 22.699219 88.578125 C 22.484375 88.621094 22.222656 88.664062 22.007812 88.707031 Z M 22.007812 88.707031 " fill-opacity="1" fill-rule="nonzero"/><path fill="#000000" d="M 29.226562 80.726562 C 29.320312 80.847656 29.382812 80.988281 29.417969 81.152344 C 29.449219 81.3125 29.453125 81.496094 29.425781 81.695312 C 29.398438 81.894531 29.34375 82.105469 29.257812 82.332031 C 29.167969 82.558594 29.054688 82.796875 28.910156 83.042969 C 28.769531 83.289062 28.601562 83.542969 28.40625 83.800781 C 28.210938 84.054688 27.996094 84.3125 27.757812 84.570312 C 27.523438 84.828125 27.265625 85.078125 26.996094 85.328125 C 26.722656 85.574219 26.441406 85.8125 26.144531 86.039062 C 25.847656 86.265625 25.546875 86.480469 25.238281 86.679688 C 24.929688 86.882812 24.621094 87.0625 24.3125 87.226562 C 24.003906 87.390625 23.703125 87.535156 23.402344 87.65625 C 23.105469 87.78125 22.820312 87.878906 22.546875 87.957031 C 22.269531 88.03125 22.011719 88.082031 21.769531 88.109375 C 21.527344 88.132812 21.308594 88.136719 21.109375 88.109375 C 20.910156 88.085938 20.734375 88.035156 20.585938 87.960938 C 20.4375 87.886719 20.316406 87.789062 20.222656 87.671875 C 20.128906 87.550781 20.066406 87.40625 20.03125 87.242188 C 19.996094 87.082031 19.996094 86.898438 20.019531 86.699219 C 20.046875 86.5 20.105469 86.289062 20.191406 86.0625 C 20.277344 85.835938 20.394531 85.597656 20.535156 85.351562 C 20.679688 85.105469 20.847656 84.851562 21.042969 84.59375 C 21.234375 84.339844 21.453125 84.082031 21.6875 83.824219 C 21.925781 83.566406 22.179688 83.316406 22.453125 83.070312 C 22.722656 82.820312 23.007812 82.582031 23.304688 82.355469 C 23.597656 82.128906 23.902344 81.914062 24.207031 81.714844 C 24.515625 81.515625 24.824219 81.332031 25.132812 81.167969 C 25.441406 81.003906 25.746094 80.859375 26.042969 80.738281 C 26.339844 80.613281 26.628906 80.515625 26.902344 80.441406 C 27.175781 80.363281 27.4375 80.3125 27.675781 80.285156 C 27.917969 80.261719 28.140625 80.261719 28.339844 80.285156 C 28.539062 80.308594 28.710938 80.359375 28.863281 80.433594 C 29.011719 80.507812 29.132812 80.605469 29.226562 80.726562 Z M 29.226562 80.726562 " fill-opacity="1" fill-rule="nonzero"/><path fill="#000000" d="M 21.449219 88.75 C 20.71875 88.75 20.113281 88.492188 19.769531 88.058594 C 19.210938 87.371094 19.339844 86.292969 20.027344 85.042969 C 20.632812 83.96875 21.707031 82.847656 22.957031 81.859375 C 25.367188 80.003906 28.597656 78.84375 29.761719 80.351562 C 30.320312 81.039062 30.191406 82.117188 29.503906 83.363281 C 28.902344 84.441406 27.824219 85.5625 26.574219 86.550781 C 25.324219 87.542969 23.949219 88.230469 22.742188 88.578125 C 22.269531 88.664062 21.835938 88.75 21.449219 88.75 Z M 28.039062 80.867188 C 27.089844 80.867188 25.453125 81.46875 23.6875 82.847656 C 22.527344 83.710938 21.621094 84.742188 21.0625 85.691406 C 20.632812 86.421875 20.5 87.070312 20.71875 87.328125 C 20.933594 87.585938 21.578125 87.628906 22.398438 87.414062 C 23.429688 87.113281 24.636719 86.464844 25.800781 85.605469 C 26.960938 84.742188 27.867188 83.710938 28.425781 82.761719 C 28.859375 82.03125 28.988281 81.382812 28.769531 81.125 C 28.640625 80.953125 28.382812 80.867188 28.039062 80.867188 Z M 28.039062 80.867188 " fill-opacity="1" fill-rule="nonzero"/><path fill="#ffffff" d="M 24.722656 91.765625 C 24.722656 91.765625 32.390625 90.257812 32.734375 83.96875 " fill-opacity="1" fill-rule="nonzero"/><path fill="#000000" d="M 24.851562 92.367188 L 24.59375 91.160156 C 24.679688 91.160156 31.785156 89.652344 32.132812 83.925781 L 33.378906 84.011719 C 32.992188 90.6875 24.9375 92.324219 24.851562 92.367188 Z M 24.851562 92.367188 " fill-opacity="1" fill-rule="nonzero"/><path fill="#ffffff" d="M 28.769531 93.832031 C 28.769531 93.832031 34.929688 91.460938 35.449219 84.441406 " fill-opacity="1" fill-rule="nonzero"/><path fill="#000000" d="M 28.988281 94.433594 L 28.554688 93.273438 C 28.8125 93.183594 34.371094 90.945312 34.84375 84.441406 L 36.050781 84.527344 C 35.535156 91.808594 29.246094 94.304688 28.988281 94.433594 Z M 28.988281 94.433594 " fill-opacity="1" fill-rule="nonzero"/><path fill="#000000" d="M 50.695312 83.320312 C 48.585938 83.320312 47.378906 82.03125 47.335938 81.945312 C 47.121094 81.683594 47.121094 81.296875 47.378906 81.082031 C 47.636719 80.867188 48.023438 80.867188 48.238281 81.125 C 48.28125 81.210938 49.660156 82.589844 51.988281 81.902344 C 52.332031 81.816406 52.675781 81.988281 52.761719 82.332031 C 52.847656 82.675781 52.675781 83.019531 52.332031 83.105469 C 51.726562 83.277344 51.167969 83.320312 50.695312 83.320312 Z M 50.695312 83.320312 " fill-opacity="1" fill-rule="nonzero"/><path fill="#000000" d="M 8.140625 71.261719 C 8.140625 71.261719 6.203125 74.578125 9.042969 76.992188 C 12.449219 79.875 15.160156 77.335938 15.160156 77.335938 C 15.160156 77.335938 19.210938 78.367188 20.890625 75.484375 C 23.085938 71.777344 19.941406 70.226562 19.941406 70.226562 C 19.941406 70.226562 21.921875 66.4375 18.433594 64.84375 C 15.632812 63.59375 13.695312 66.136719 13.695312 66.136719 C 13.695312 66.136719 11.285156 62.605469 7.796875 65.316406 C 5.082031 67.429688 6.417969 71.5625 8.140625 71.261719 Z M 8.140625 71.261719 " fill-opacity="1" fill-rule="nonzero"/><g clip-path="url(#1c347634c8)"><path fill="#ffffff" d="M 12.359375 78.972656 C 11.285156 78.972656 9.992188 78.585938 8.65625 77.464844 C 6.503906 75.65625 6.71875 73.242188 7.277344 71.734375 C 6.761719 71.476562 6.332031 71.003906 6.03125 70.316406 C 5.339844 68.679688 5.597656 66.308594 7.449219 64.84375 C 8.65625 63.941406 9.863281 63.550781 11.070312 63.726562 C 12.316406 63.941406 13.222656 64.671875 13.78125 65.230469 C 14.773438 64.285156 16.625 63.335938 18.777344 64.285156 C 19.898438 64.800781 20.632812 65.578125 20.976562 66.566406 C 21.449219 67.902344 21.0625 69.28125 20.761719 70.011719 C 21.234375 70.359375 21.878906 71.003906 22.179688 71.996094 C 22.527344 73.15625 22.269531 74.449219 21.492188 75.785156 C 19.855469 78.585938 16.410156 78.152344 15.375 77.980469 C 14.816406 78.367188 13.738281 78.972656 12.359375 78.972656 Z M 8.65625 71.5625 C 8.570312 71.691406 7.019531 74.492188 9.433594 76.515625 C 12.359375 79.015625 14.644531 76.992188 14.730469 76.90625 L 14.988281 76.6875 L 15.332031 76.773438 C 15.375 76.773438 18.949219 77.679688 20.371094 75.226562 C 21.019531 74.148438 21.191406 73.199219 20.976562 72.382812 C 20.675781 71.304688 19.683594 70.789062 19.683594 70.789062 L 19.125 70.488281 L 19.425781 69.925781 C 19.425781 69.925781 20.242188 68.289062 19.769531 66.953125 C 19.554688 66.265625 19.039062 65.75 18.21875 65.40625 C 15.9375 64.371094 14.300781 66.4375 14.214844 66.523438 L 13.695312 67.214844 L 13.222656 66.523438 C 13.222656 66.523438 12.273438 65.1875 10.855469 64.972656 C 9.992188 64.84375 9.085938 65.144531 8.183594 65.835938 C 6.632812 67.042969 6.71875 68.894531 7.148438 69.839844 C 7.40625 70.402344 7.753906 70.703125 8.054688 70.660156 L 9.347656 70.445312 Z M 8.65625 71.5625 " fill-opacity="1" fill-rule="nonzero"/></g><path fill="#ffffff" d="M 8.140625 71.261719 C 8.140625 71.261719 8.914062 69.839844 10.898438 70.488281 " fill-opacity="1" fill-rule="nonzero"/><path fill="#ffffff" d="M 8.140625 71.863281 C 8.054688 71.863281 7.925781 71.820312 7.839844 71.777344 C 7.539062 71.605469 7.449219 71.261719 7.625 70.960938 C 7.96875 70.316406 9.175781 69.28125 11.113281 69.882812 C 11.457031 69.96875 11.628906 70.316406 11.5 70.660156 C 11.414062 71.003906 11.070312 71.175781 10.722656 71.046875 C 9.304688 70.617188 8.742188 71.433594 8.699219 71.5625 C 8.570312 71.777344 8.355469 71.863281 8.140625 71.863281 Z M 8.140625 71.863281 " fill-opacity="1" fill-rule="nonzero"/><path fill="#ffffff" d="M 13.695312 66.179688 C 13.695312 66.179688 14.214844 67.085938 13.78125 67.859375 " fill-opacity="1" fill-rule="nonzero"/><path fill="#ffffff" d="M 13.78125 68.460938 C 13.695312 68.460938 13.566406 68.417969 13.480469 68.375 C 13.179688 68.203125 13.09375 67.816406 13.265625 67.515625 C 13.523438 67.085938 13.222656 66.480469 13.179688 66.480469 C 13.007812 66.179688 13.09375 65.792969 13.394531 65.621094 C 13.695312 65.449219 14.039062 65.535156 14.214844 65.835938 C 14.472656 66.265625 14.816406 67.257812 14.300781 68.160156 C 14.171875 68.332031 13.996094 68.460938 13.78125 68.460938 Z M 13.78125 68.460938 " fill-opacity="1" fill-rule="nonzero"/><path fill="#000000" d="M 19.941406 70.269531 C 19.941406 70.269531 18.648438 69.582031 17.359375 70.574219 " fill-opacity="1" fill-rule="nonzero"/><path fill="#ffffff" d="M 17.359375 71.175781 C 17.183594 71.175781 16.96875 71.089844 16.882812 70.917969 C 16.667969 70.660156 16.753906 70.269531 17.011719 70.054688 C 18.605469 68.851562 20.199219 69.667969 20.242188 69.710938 C 20.542969 69.882812 20.675781 70.226562 20.5 70.53125 C 20.328125 70.832031 19.984375 70.960938 19.683594 70.789062 C 19.640625 70.746094 18.691406 70.316406 17.746094 71.003906 C 17.617188 71.132812 17.488281 71.175781 17.359375 71.175781 Z M 17.359375 71.175781 " fill-opacity="1" fill-rule="nonzero"/><path fill="#000000" d="M 8.398438 52.699219 C 8.398438 52.699219 7.148438 48.734375 11.285156 48.21875 C 15.332031 47.703125 15.246094 51.40625 15.246094 51.40625 C 15.246094 51.40625 16.882812 51.105469 17.402344 54.078125 C 17.789062 56.53125 16.410156 59.203125 12.664062 59.589844 C 8.914062 59.976562 7.539062 57.308594 7.277344 56.058594 C 7.019531 54.808594 7.148438 52.785156 8.398438 52.699219 Z M 8.398438 52.699219 " fill-opacity="1" fill-rule="nonzero"/><path fill="#ffffff" d="M 11.929688 60.234375 C 7.753906 60.234375 6.761719 56.617188 6.675781 56.1875 C 6.417969 55.195312 6.460938 53.6875 7.105469 52.828125 C 7.277344 52.613281 7.496094 52.398438 7.710938 52.269531 C 7.582031 51.535156 7.539062 50.328125 8.183594 49.253906 C 8.785156 48.304688 9.777344 47.746094 11.199219 47.574219 C 12.664062 47.402344 13.78125 47.660156 14.644531 48.390625 C 15.460938 49.125 15.765625 50.15625 15.851562 50.761719 C 16.066406 50.804688 16.324219 50.890625 16.582031 51.105469 C 17.3125 51.621094 17.789062 52.570312 18.003906 53.949219 C 18.261719 55.410156 17.917969 56.875 17.054688 57.996094 C 16.109375 59.246094 14.601562 59.976562 12.707031 60.191406 C 12.449219 60.191406 12.144531 60.234375 11.929688 60.234375 Z M 12.015625 48.777344 C 11.800781 48.777344 11.585938 48.777344 11.328125 48.820312 C 10.292969 48.953125 9.5625 49.339844 9.175781 49.941406 C 8.484375 51.019531 8.957031 52.527344 8.957031 52.527344 L 9.175781 53.257812 L 8.398438 53.34375 C 8.3125 53.34375 8.140625 53.386719 8.011719 53.601562 C 7.625 54.121094 7.625 55.195312 7.796875 55.972656 C 7.882812 56.316406 8.742188 59.417969 12.535156 59.03125 C 14.085938 58.859375 15.289062 58.296875 16.023438 57.308594 C 16.667969 56.445312 16.925781 55.367188 16.753906 54.207031 C 16.453125 52.398438 15.722656 51.964844 15.289062 52.007812 L 14.601562 52.09375 L 14.601562 51.40625 C 14.601562 51.40625 14.601562 50.113281 13.738281 49.382812 C 13.351562 48.953125 12.75 48.777344 12.015625 48.777344 Z M 12.015625 48.777344 " fill-opacity="1" fill-rule="nonzero"/><path fill="#ffffff" d="M 10.164062 55.238281 C 10.164062 55.238281 10.121094 55.238281 10.121094 55.238281 C 8.527344 55.109375 7.925781 53.558594 7.796875 52.742188 C 7.753906 52.398438 7.96875 52.09375 8.3125 52.050781 C 8.65625 52.007812 8.957031 52.226562 9 52.570312 C 9 52.613281 9.21875 53.90625 10.207031 53.992188 C 10.550781 54.035156 10.8125 54.292969 10.765625 54.636719 C 10.722656 55.023438 10.464844 55.238281 10.164062 55.238281 Z M 10.164062 55.238281 " fill-opacity="1" fill-rule="nonzero"/><path fill="#ffffff" d="M 14.472656 54.25 C 14.300781 54.25 14.085938 54.164062 13.996094 53.992188 C 13.78125 53.730469 13.867188 53.34375 14.128906 53.128906 C 14.859375 52.613281 14.644531 51.492188 14.644531 51.492188 C 14.601562 51.148438 14.816406 50.847656 15.117188 50.761719 C 15.460938 50.675781 15.765625 50.890625 15.851562 51.234375 C 15.851562 51.320312 16.195312 53.085938 14.859375 54.078125 C 14.730469 54.207031 14.601562 54.25 14.472656 54.25 Z M 14.472656 54.25 " fill-opacity="1" fill-rule="nonzero"/><path fill="#ffffff" d="M 50.394531 57.351562 C 50.394531 57.851562 50.34375 58.347656 50.246094 58.835938 C 50.148438 59.328125 50.003906 59.804688 49.8125 60.265625 C 49.621094 60.730469 49.386719 61.167969 49.109375 61.585938 C 48.832031 62 48.515625 62.386719 48.160156 62.742188 C 47.804688 63.09375 47.421875 63.410156 47.003906 63.6875 C 46.589844 63.96875 46.148438 64.203125 45.6875 64.394531 C 45.222656 64.585938 44.746094 64.730469 44.257812 64.828125 C 43.765625 64.925781 43.269531 64.972656 42.769531 64.972656 C 42.269531 64.972656 41.773438 64.925781 41.28125 64.828125 C 40.792969 64.730469 40.316406 64.585938 39.851562 64.394531 C 39.390625 64.203125 38.949219 63.96875 38.535156 63.6875 C 38.117188 63.410156 37.734375 63.09375 37.378906 62.742188 C 37.023438 62.386719 36.707031 62 36.429688 61.585938 C 36.152344 61.167969 35.917969 60.730469 35.726562 60.265625 C 35.535156 59.804688 35.390625 59.328125 35.292969 58.835938 C 35.195312 58.347656 35.144531 57.851562 35.144531 57.351562 C 35.144531 56.847656 35.195312 56.355469 35.292969 55.863281 C 35.390625 55.371094 35.535156 54.894531 35.726562 54.433594 C 35.917969 53.96875 36.152344 53.53125 36.429688 53.113281 C 36.707031 52.699219 37.023438 52.3125 37.378906 51.960938 C 37.734375 51.605469 38.117188 51.289062 38.535156 51.011719 C 38.949219 50.734375 39.390625 50.5 39.851562 50.308594 C 40.316406 50.117188 40.792969 49.96875 41.28125 49.871094 C 41.773438 49.773438 42.269531 49.726562 42.769531 49.726562 C 43.269531 49.726562 43.765625 49.773438 44.257812 49.871094 C 44.746094 49.96875 45.222656 50.117188 45.6875 50.308594 C 46.148438 50.5 46.589844 50.734375 47.003906 51.011719 C 47.421875 51.289062 47.804688 51.605469 48.160156 51.960938 C 48.515625 52.3125 48.832031 52.699219 49.109375 53.113281 C 49.386719 53.53125 49.621094 53.96875 49.8125 54.433594 C 50.003906 54.894531 50.148438 55.371094 50.246094 55.863281 C 50.34375 56.355469 50.394531 56.847656 50.394531 57.351562 Z M 50.394531 57.351562 " fill-opacity="1" fill-rule="nonzero"/><path fill="#000000" d="M 42.769531 65.621094 C 38.246094 65.621094 34.542969 61.914062 34.542969 57.394531 C 34.542969 52.871094 38.246094 49.167969 42.769531 49.167969 C 47.292969 49.167969 50.996094 52.871094 50.996094 57.394531 C 50.996094 61.914062 47.292969 65.621094 42.769531 65.621094 Z M 42.769531 50.371094 C 38.894531 50.371094 35.75 53.515625 35.75 57.394531 C 35.75 61.269531 38.894531 64.414062 42.769531 64.414062 C 46.644531 64.414062 49.789062 61.269531 49.789062 57.394531 C 49.746094 53.515625 46.601562 50.371094 42.769531 50.371094 Z M 42.769531 50.371094 " fill-opacity="1" fill-rule="nonzero"/><path fill="#000000" d="M 44.234375 57.480469 C 44.234375 57.742188 44.183594 57.996094 44.082031 58.238281 C 43.984375 58.480469 43.839844 58.695312 43.652344 58.878906 C 43.46875 59.066406 43.253906 59.210938 43.011719 59.308594 C 42.769531 59.410156 42.515625 59.460938 42.253906 59.460938 C 41.988281 59.460938 41.738281 59.410156 41.496094 59.308594 C 41.25 59.210938 41.039062 59.066406 40.851562 58.878906 C 40.664062 58.695312 40.523438 58.480469 40.421875 58.238281 C 40.320312 57.996094 40.269531 57.742188 40.269531 57.480469 C 40.269531 57.214844 40.320312 56.964844 40.421875 56.722656 C 40.523438 56.476562 40.664062 56.265625 40.851562 56.078125 C 41.039062 55.894531 41.25 55.75 41.496094 55.648438 C 41.738281 55.546875 41.988281 55.5 42.253906 55.5 C 42.515625 55.5 42.769531 55.546875 43.011719 55.648438 C 43.253906 55.75 43.46875 55.894531 43.652344 56.078125 C 43.839844 56.265625 43.984375 56.476562 44.082031 56.722656 C 44.183594 56.964844 44.234375 57.214844 44.234375 57.480469 Z M 44.234375 57.480469 " fill-opacity="1" fill-rule="nonzero"/><path fill="#000000" d="M 42.253906 59.804688 C 41.949219 59.804688 41.691406 59.761719 41.390625 59.632812 C 40.832031 59.417969 40.359375 58.988281 40.097656 58.425781 C 39.839844 57.867188 39.839844 57.222656 40.054688 56.660156 C 40.53125 55.453125 41.863281 54.894531 43.027344 55.367188 C 44.234375 55.84375 44.792969 57.179688 44.320312 58.339844 C 44.105469 58.902344 43.675781 59.375 43.113281 59.632812 C 42.898438 59.71875 42.554688 59.804688 42.253906 59.804688 Z M 42.253906 55.800781 C 41.5625 55.800781 40.917969 56.230469 40.660156 56.875 C 40.488281 57.308594 40.488281 57.738281 40.703125 58.167969 C 40.917969 58.597656 41.21875 58.902344 41.648438 59.074219 C 42.082031 59.246094 42.511719 59.246094 42.941406 59.03125 C 43.371094 58.859375 43.675781 58.511719 43.847656 58.082031 C 44.191406 57.222656 43.761719 56.230469 42.898438 55.886719 C 42.683594 55.84375 42.46875 55.800781 42.253906 55.800781 Z M 42.253906 55.800781 " fill-opacity="1" fill-rule="nonzero"/><path fill="#000000" d="M 42.855469 55.886719 C 42.855469 55.886719 41.691406 55.324219 40.140625 55.671875 L 40.011719 55.066406 C 41.777344 54.679688 43.070312 55.324219 43.113281 55.367188 Z M 42.855469 55.886719 " fill-opacity="1" fill-rule="nonzero"/><path fill="#ffffff" d="M 105.289062 61.242188 C 105.675781 61.523438 106.011719 61.859375 106.304688 62.25 C 106.59375 62.644531 106.832031 63.085938 107.015625 63.578125 C 107.203125 64.070312 107.332031 64.601562 107.40625 65.171875 C 107.480469 65.746094 107.496094 66.34375 107.453125 66.972656 C 107.414062 67.605469 107.3125 68.25 107.160156 68.914062 C 107.003906 69.578125 106.796875 70.242188 106.53125 70.914062 C 106.269531 71.585938 105.957031 72.25 105.597656 72.902344 C 105.238281 73.558594 104.835938 74.191406 104.394531 74.800781 C 103.949219 75.414062 103.472656 75.992188 102.964844 76.535156 C 102.453125 77.082031 101.921875 77.582031 101.363281 78.039062 C 100.808594 78.496094 100.238281 78.902344 99.65625 79.257812 C 99.074219 79.609375 98.488281 79.902344 97.902344 80.136719 C 97.316406 80.375 96.742188 80.542969 96.175781 80.652344 C 95.609375 80.761719 95.066406 80.800781 94.539062 80.777344 C 94.015625 80.753906 93.519531 80.664062 93.054688 80.511719 C 92.59375 80.355469 92.167969 80.140625 91.785156 79.859375 C 91.398438 79.582031 91.0625 79.246094 90.769531 78.851562 C 90.480469 78.460938 90.242188 78.015625 90.058594 77.527344 C 89.871094 77.035156 89.742188 76.503906 89.667969 75.929688 C 89.59375 75.359375 89.578125 74.757812 89.621094 74.128906 C 89.664062 73.5 89.761719 72.855469 89.914062 72.191406 C 90.070312 71.527344 90.277344 70.859375 90.542969 70.1875 C 90.804688 69.515625 91.117188 68.855469 91.476562 68.199219 C 91.835938 67.546875 92.238281 66.914062 92.679688 66.304688 C 93.125 65.691406 93.601562 65.113281 94.109375 64.570312 C 94.621094 64.023438 95.152344 63.523438 95.710938 63.0625 C 96.265625 62.605469 96.835938 62.199219 97.417969 61.847656 C 98 61.496094 98.585938 61.199219 99.171875 60.964844 C 99.757812 60.730469 100.332031 60.558594 100.898438 60.453125 C 101.464844 60.34375 102.011719 60.300781 102.535156 60.324219 C 103.058594 60.351562 103.554688 60.4375 104.019531 60.59375 C 104.480469 60.746094 104.90625 60.964844 105.289062 61.242188 Z M 105.289062 61.242188 " fill-opacity="1" fill-rule="nonzero"/><path fill="#000000" d="M 100.183594 77.035156 C 100.097656 77.035156 100.054688 77.035156 99.96875 76.992188 C 99.667969 76.863281 99.496094 76.515625 99.625 76.214844 C 99.667969 76.128906 100.355469 74.148438 98.976562 73.589844 C 97.039062 72.769531 95.488281 73.804688 95.445312 73.847656 C 95.230469 73.976562 94.929688 73.976562 94.714844 73.847656 C 94.496094 73.71875 94.410156 73.414062 94.496094 73.15625 C 96.4375 67.171875 103.285156 67.128906 103.371094 67.128906 C 103.714844 67.128906 103.972656 67.386719 103.972656 67.730469 C 103.972656 68.074219 103.714844 68.332031 103.371094 68.332031 C 103.371094 68.332031 101.820312 68.332031 100.097656 69.023438 C 98.375 69.710938 97.082031 70.746094 96.265625 72.210938 C 97.082031 71.996094 98.246094 71.953125 99.496094 72.46875 C 101.476562 73.285156 101.21875 75.570312 100.785156 76.644531 C 100.65625 76.90625 100.441406 77.035156 100.183594 77.035156 Z M 100.183594 77.035156 " fill-opacity="1" fill-rule="nonzero"/><path fill="#000000" d="M 60.730469 69.152344 C 52.203125 65.664062 48.585938 71.648438 48.585938 71.648438 C 54.699219 84.226562 63.746094 86.121094 66.632812 83.320312 C 69.515625 80.523438 69.257812 72.640625 60.730469 69.152344 Z M 60.730469 69.152344 " fill-opacity="1" fill-rule="nonzero"/><path fill="#000000" d="M 63.359375 85.042969 C 62.882812 85.042969 62.367188 85 61.851562 84.914062 C 56.722656 84.011719 51.554688 79.144531 48.023438 71.90625 L 47.894531 71.605469 L 48.066406 71.304688 C 48.109375 71.261719 52.03125 64.929688 60.988281 68.546875 C 65.210938 70.269531 68.050781 73.371094 68.785156 77.035156 C 69.300781 79.660156 68.65625 82.246094 67.105469 83.710938 C 66.15625 84.613281 64.863281 85.042969 63.359375 85.042969 Z M 49.273438 71.691406 C 54.226562 81.640625 60.300781 83.40625 62.023438 83.710938 C 63.789062 84.011719 65.296875 83.710938 66.15625 82.890625 C 67.40625 81.683594 67.921875 79.488281 67.492188 77.335938 C 67.105469 75.398438 65.726562 71.863281 60.472656 69.753906 C 53.582031 66.867188 50.089844 70.617188 49.273438 71.691406 Z M 49.273438 71.691406 " fill-opacity="1" fill-rule="nonzero"/><path fill="#ffffff" d="M 69.300781 62.476562 C 69.300781 62.976562 69.253906 63.472656 69.15625 63.960938 C 69.058594 64.453125 68.914062 64.929688 68.722656 65.394531 C 68.53125 65.855469 68.292969 66.292969 68.015625 66.710938 C 67.738281 67.128906 67.421875 67.511719 67.070312 67.867188 C 66.714844 68.21875 66.328125 68.535156 65.914062 68.8125 C 65.496094 69.09375 65.058594 69.328125 64.59375 69.519531 C 64.132812 69.710938 63.65625 69.855469 63.164062 69.953125 C 62.675781 70.050781 62.179688 70.097656 61.675781 70.097656 C 61.175781 70.097656 60.679688 70.050781 60.191406 69.953125 C 59.699219 69.855469 59.222656 69.710938 58.761719 69.519531 C 58.296875 69.328125 57.859375 69.09375 57.441406 68.8125 C 57.027344 68.535156 56.640625 68.21875 56.285156 67.867188 C 55.933594 67.511719 55.617188 67.128906 55.339844 66.710938 C 55.0625 66.292969 54.824219 65.855469 54.632812 65.394531 C 54.441406 64.929688 54.296875 64.453125 54.199219 63.960938 C 54.101562 63.472656 54.054688 62.976562 54.054688 62.476562 C 54.054688 61.976562 54.101562 61.480469 54.199219 60.988281 C 54.296875 60.496094 54.441406 60.019531 54.632812 59.558594 C 54.824219 59.09375 55.0625 58.65625 55.339844 58.238281 C 55.617188 57.824219 55.933594 57.4375 56.285156 57.085938 C 56.640625 56.730469 57.027344 56.414062 57.441406 56.136719 C 57.859375 55.859375 58.296875 55.625 58.761719 55.433594 C 59.222656 55.242188 59.699219 55.097656 60.191406 55 C 60.679688 54.902344 61.175781 54.851562 61.675781 54.851562 C 62.179688 54.851562 62.675781 54.902344 63.164062 55 C 63.65625 55.097656 64.132812 55.242188 64.59375 55.433594 C 65.058594 55.625 65.496094 55.859375 65.914062 56.136719 C 66.328125 56.414062 66.714844 56.730469 67.070312 57.085938 C 67.421875 57.4375 67.738281 57.824219 68.015625 58.238281 C 68.292969 58.65625 68.53125 59.09375 68.722656 59.558594 C 68.914062 60.019531 69.058594 60.496094 69.15625 60.988281 C 69.253906 61.480469 69.300781 61.976562 69.300781 62.476562 Z M 69.300781 62.476562 " fill-opacity="1" fill-rule="nonzero"/><path fill="#000000" d="M 61.675781 70.703125 C 57.15625 70.703125 53.449219 67 53.449219 62.476562 C 53.449219 57.953125 57.15625 54.25 61.675781 54.25 C 66.199219 54.25 69.90625 57.953125 69.90625 62.476562 C 69.90625 67 66.199219 70.703125 61.675781 70.703125 Z M 61.675781 55.5 C 57.800781 55.5 54.65625 58.640625 54.65625 62.519531 C 54.65625 66.394531 57.800781 69.539062 61.675781 69.539062 C 65.554688 69.539062 68.699219 66.394531 68.699219 62.519531 C 68.65625 58.640625 65.511719 55.5 61.675781 55.5 Z M 61.675781 55.5 " fill-opacity="1" fill-rule="nonzero"/><path fill="#000000" d="M 63.445312 62.605469 C 63.445312 62.867188 63.394531 63.121094 63.292969 63.363281 C 63.191406 63.605469 63.050781 63.820312 62.863281 64.003906 C 62.675781 64.191406 62.464844 64.335938 62.21875 64.433594 C 61.976562 64.535156 61.726562 64.585938 61.460938 64.585938 C 61.199219 64.585938 60.945312 64.535156 60.703125 64.433594 C 60.460938 64.335938 60.246094 64.191406 60.0625 64.003906 C 59.875 63.820312 59.734375 63.605469 59.632812 63.363281 C 59.53125 63.121094 59.480469 62.867188 59.480469 62.605469 C 59.480469 62.34375 59.53125 62.089844 59.632812 61.847656 C 59.734375 61.605469 59.875 61.390625 60.0625 61.203125 C 60.246094 61.019531 60.460938 60.875 60.703125 60.773438 C 60.945312 60.671875 61.199219 60.625 61.460938 60.625 C 61.726562 60.625 61.976562 60.671875 62.21875 60.773438 C 62.464844 60.875 62.675781 61.019531 62.863281 61.203125 C 63.050781 61.390625 63.191406 61.605469 63.292969 61.847656 C 63.394531 62.089844 63.445312 62.34375 63.445312 62.605469 Z M 63.445312 62.605469 " fill-opacity="1" fill-rule="nonzero"/><path fill="#000000" d="M 61.460938 64.886719 C 61.160156 64.886719 60.902344 64.84375 60.601562 64.714844 C 60.042969 64.5 59.566406 64.070312 59.308594 63.507812 C 59.050781 62.949219 59.050781 62.304688 59.265625 61.742188 C 59.480469 61.183594 59.910156 60.710938 60.472656 60.453125 C 61.03125 60.191406 61.675781 60.191406 62.238281 60.40625 C 62.796875 60.625 63.269531 61.054688 63.53125 61.613281 C 63.789062 62.175781 63.789062 62.820312 63.574219 63.378906 C 63.359375 63.941406 62.925781 64.414062 62.367188 64.671875 C 62.109375 64.84375 61.765625 64.886719 61.460938 64.886719 Z M 61.460938 60.882812 C 61.246094 60.882812 60.988281 60.925781 60.773438 61.011719 C 60.34375 61.183594 60.042969 61.527344 59.867188 61.957031 C 59.695312 62.390625 59.695312 62.820312 59.910156 63.25 C 60.128906 63.679688 60.429688 63.984375 60.859375 64.15625 C 61.289062 64.328125 61.722656 64.328125 62.152344 64.113281 C 62.582031 63.941406 62.882812 63.59375 63.054688 63.164062 C 63.226562 62.734375 63.226562 62.304688 63.011719 61.871094 C 62.839844 61.441406 62.496094 61.140625 62.066406 60.96875 C 61.894531 60.925781 61.675781 60.882812 61.460938 60.882812 Z M 61.460938 60.882812 " fill-opacity="1" fill-rule="nonzero"/><path fill="#000000" d="M 62.066406 61.011719 C 62.066406 61.011719 60.902344 60.453125 59.351562 60.796875 L 59.222656 60.191406 C 60.988281 59.804688 62.28125 60.453125 62.324219 60.496094 Z M 62.066406 61.011719 " fill-opacity="1" fill-rule="nonzero"/><path fill="#000000" d="M 85.925781 74.363281 C 91.007812 72.253906 97.988281 66.351562 103.457031 61.097656 C 113.835938 51.148438 104.449219 40.507812 104.449219 40.507812 C 101.648438 37.882812 100.183594 33.617188 101.949219 30.171875 C 102.636719 28.835938 102.898438 25.863281 100.3125 23.453125 C 97.210938 20.566406 91.613281 18.371094 83.300781 20.4375 C 79.636719 21.34375 75.847656 20.222656 73.046875 17.726562 C 70.9375 15.828125 67.75 14.496094 63.011719 14.882812 C 55.691406 15.441406 34.585938 24.832031 36.179688 38.3125 C 38.074219 54.550781 78.347656 33.746094 84.117188 44.945312 C 88.082031 52.65625 77.828125 52.09375 79.722656 57.78125 C 81.015625 61.742188 85.453125 59.160156 85.96875 64.070312 C 86.183594 66.351562 84.332031 67.816406 82.78125 69.28125 C 81.578125 70.402344 81.492188 72.296875 82.609375 73.542969 C 83.386719 74.492188 84.765625 74.835938 85.925781 74.363281 Z M 85.925781 74.363281 " fill-opacity="1" fill-rule="nonzero"/><path fill="#000000" d="M 15.160156 74.234375 C 15.160156 74.234375 16.496094 76.214844 14.386719 77.851562 " fill-opacity="1" fill-rule="nonzero"/><path fill="#ffffff" d="M 14.386719 78.5 C 14.214844 78.5 14.039062 78.410156 13.910156 78.28125 C 13.695312 78.023438 13.738281 77.636719 13.996094 77.421875 C 15.589844 76.171875 14.773438 74.75 14.644531 74.621094 C 14.472656 74.320312 14.515625 73.976562 14.816406 73.761719 C 15.117188 73.589844 15.460938 73.632812 15.675781 73.933594 C 16.238281 74.792969 16.796875 76.773438 14.773438 78.410156 C 14.644531 78.453125 14.515625 78.5 14.386719 78.5 Z M 14.386719 78.5 " fill-opacity="1" fill-rule="nonzero"/><g fill="#000000" fill-opacity="1"><g transform="translate(119.587273, 70.206544)"><g><path d="M 12.71875 0.28125 C 10.65625 0.28125 8.804688 -0.0507812 7.171875 -0.71875 C 5.535156 -1.394531 4.222656 -2.390625 3.234375 -3.703125 C 2.253906 -5.015625 1.738281 -6.597656 1.6875 -8.453125 L 9.015625 -8.453125 C 9.128906 -7.410156 9.492188 -6.613281 10.109375 -6.0625 C 10.722656 -5.507812 11.523438 -5.234375 12.515625 -5.234375 C 13.535156 -5.234375 14.34375 -5.46875 14.9375 -5.9375 C 15.53125 -6.40625 15.828125 -7.054688 15.828125 -7.890625 C 15.828125 -8.585938 15.59375 -9.164062 15.125 -9.625 C 14.65625 -10.082031 14.078125 -10.457031 13.390625 -10.75 C 12.703125 -11.039062 11.726562 -11.375 10.46875 -11.75 C 8.644531 -12.320312 7.15625 -12.890625 6 -13.453125 C 4.84375 -14.015625 3.847656 -14.84375 3.015625 -15.9375 C 2.179688 -17.039062 1.765625 -18.476562 1.765625 -20.25 C 1.765625 -22.882812 2.71875 -24.945312 4.625 -26.4375 C 6.53125 -27.925781 9.015625 -28.671875 12.078125 -28.671875 C 15.191406 -28.671875 17.703125 -27.925781 19.609375 -26.4375 C 21.515625 -24.945312 22.535156 -22.875 22.671875 -20.21875 L 15.21875 -20.21875 C 15.164062 -21.125 14.828125 -21.835938 14.203125 -22.359375 C 13.585938 -22.890625 12.800781 -23.15625 11.84375 -23.15625 C 11.007812 -23.15625 10.335938 -22.929688 9.828125 -22.484375 C 9.316406 -22.046875 9.0625 -21.410156 9.0625 -20.578125 C 9.0625 -19.660156 9.488281 -18.945312 10.34375 -18.4375 C 11.207031 -17.925781 12.550781 -17.378906 14.375 -16.796875 C 16.195312 -16.171875 17.675781 -15.578125 18.8125 -15.015625 C 19.957031 -14.453125 20.945312 -13.632812 21.78125 -12.5625 C 22.613281 -11.488281 23.03125 -10.109375 23.03125 -8.421875 C 23.03125 -6.804688 22.617188 -5.335938 21.796875 -4.015625 C 20.984375 -2.703125 19.796875 -1.65625 18.234375 -0.875 C 16.679688 -0.101562 14.84375 0.28125 12.71875 0.28125 Z M 12.71875 0.28125 "/></g></g></g><g fill="#000000" fill-opacity="1"><g transform="translate(144.345889, 70.206544)"><g><path d="M 15.015625 -5.84375 L 15.015625 0 L 11.515625 0 C 9.015625 0 7.066406 -0.609375 5.671875 -1.828125 C 4.273438 -3.054688 3.578125 -5.050781 3.578125 -7.8125 L 3.578125 -16.75 L 0.84375 -16.75 L 0.84375 -22.46875 L 3.578125 -22.46875 L 3.578125 -27.9375 L 10.46875 -27.9375 L 10.46875 -22.46875 L 14.984375 -22.46875 L 14.984375 -16.75 L 10.46875 -16.75 L 10.46875 -7.734375 C 10.46875 -7.054688 10.628906 -6.570312 10.953125 -6.28125 C 11.273438 -5.988281 11.8125 -5.84375 12.5625 -5.84375 Z M 15.015625 -5.84375 "/></g></g></g><g fill="#000000" fill-opacity="1"><g transform="translate(160.6906, 70.206544)"><g><path d="M 12.71875 0.328125 C 10.519531 0.328125 8.539062 -0.140625 6.78125 -1.078125 C 5.019531 -2.023438 3.632812 -3.367188 2.625 -5.109375 C 1.625 -6.859375 1.125 -8.898438 1.125 -11.234375 C 1.125 -13.546875 1.632812 -15.578125 2.65625 -17.328125 C 3.675781 -19.085938 5.070312 -20.4375 6.84375 -21.375 C 8.613281 -22.320312 10.597656 -22.796875 12.796875 -22.796875 C 15.003906 -22.796875 16.992188 -22.320312 18.765625 -21.375 C 20.535156 -20.4375 21.929688 -19.085938 22.953125 -17.328125 C 23.972656 -15.578125 24.484375 -13.546875 24.484375 -11.234375 C 24.484375 -8.921875 23.960938 -6.882812 22.921875 -5.125 C 21.890625 -3.375 20.484375 -2.023438 18.703125 -1.078125 C 16.921875 -0.140625 14.925781 0.328125 12.71875 0.328125 Z M 12.71875 -5.640625 C 14.039062 -5.640625 15.160156 -6.117188 16.078125 -7.078125 C 17.003906 -8.046875 17.46875 -9.429688 17.46875 -11.234375 C 17.46875 -13.035156 17.019531 -14.414062 16.125 -15.375 C 15.226562 -16.34375 14.117188 -16.828125 12.796875 -16.828125 C 11.460938 -16.828125 10.351562 -16.347656 9.46875 -15.390625 C 8.582031 -14.441406 8.140625 -13.054688 8.140625 -11.234375 C 8.140625 -9.429688 8.570312 -8.046875 9.4375 -7.078125 C 10.3125 -6.117188 11.40625 -5.640625 12.71875 -5.640625 Z M 12.71875 -5.640625 "/></g></g></g><g fill="#000000" fill-opacity="1"><g transform="translate(186.334889, 70.206544)"><g><path d="M 16.1875 -22.703125 C 18.8125 -22.703125 20.910156 -21.847656 22.484375 -20.140625 C 24.054688 -18.441406 24.84375 -16.101562 24.84375 -13.125 L 24.84375 0 L 18 0 L 18 -12.203125 C 18 -13.703125 17.609375 -14.867188 16.828125 -15.703125 C 16.046875 -16.535156 15 -16.953125 13.6875 -16.953125 C 12.375 -16.953125 11.328125 -16.535156 10.546875 -15.703125 C 9.765625 -14.867188 9.375 -13.703125 9.375 -12.203125 L 9.375 0 L 2.5 0 L 2.5 -22.46875 L 9.375 -22.46875 L 9.375 -19.484375 C 10.070312 -20.484375 11.007812 -21.269531 12.1875 -21.84375 C 13.375 -22.414062 14.707031 -22.703125 16.1875 -22.703125 Z M 16.1875 -22.703125 "/></g></g></g><g fill="#000000" fill-opacity="1"><g transform="translate(213.468725, 70.206544)"><g><path d="M 23.671875 -11.59375 C 23.671875 -10.945312 23.632812 -10.273438 23.5625 -9.578125 L 7.96875 -9.578125 C 8.082031 -8.179688 8.535156 -7.113281 9.328125 -6.375 C 10.117188 -5.644531 11.085938 -5.28125 12.234375 -5.28125 C 13.953125 -5.28125 15.148438 -6.003906 15.828125 -7.453125 L 23.15625 -7.453125 C 22.78125 -5.972656 22.101562 -4.640625 21.125 -3.453125 C 20.144531 -2.273438 18.914062 -1.347656 17.4375 -0.671875 C 15.957031 -0.00390625 14.304688 0.328125 12.484375 0.328125 C 10.285156 0.328125 8.328125 -0.140625 6.609375 -1.078125 C 4.890625 -2.023438 3.546875 -3.367188 2.578125 -5.109375 C 1.609375 -6.859375 1.125 -8.898438 1.125 -11.234375 C 1.125 -13.566406 1.597656 -15.601562 2.546875 -17.34375 C 3.503906 -19.09375 4.84375 -20.4375 6.5625 -21.375 C 8.28125 -22.320312 10.253906 -22.796875 12.484375 -22.796875 C 14.660156 -22.796875 16.59375 -22.335938 18.28125 -21.421875 C 19.96875 -20.503906 21.285156 -19.203125 22.234375 -17.515625 C 23.191406 -15.828125 23.671875 -13.851562 23.671875 -11.59375 Z M 16.625 -13.40625 C 16.625 -14.59375 16.222656 -15.535156 15.421875 -16.234375 C 14.617188 -16.929688 13.613281 -17.28125 12.40625 -17.28125 C 11.25 -17.28125 10.273438 -16.941406 9.484375 -16.265625 C 8.691406 -15.597656 8.203125 -14.644531 8.015625 -13.40625 Z M 16.625 -13.40625 "/></g></g></g><g fill="#000000" fill-opacity="1"><g transform="translate(238.267604, 70.206544)"><g><path d="M 9.375 -18.71875 C 10.1875 -19.957031 11.195312 -20.929688 12.40625 -21.640625 C 13.613281 -22.347656 14.953125 -22.703125 16.421875 -22.703125 L 16.421875 -15.421875 L 14.53125 -15.421875 C 12.8125 -15.421875 11.519531 -15.050781 10.65625 -14.3125 C 9.800781 -13.570312 9.375 -12.273438 9.375 -10.421875 L 9.375 0 L 2.5 0 L 2.5 -22.46875 L 9.375 -22.46875 Z M 9.375 -18.71875 "/></g></g></g><g fill="#000000" fill-opacity="1"><g transform="translate(255.497988, 70.206544)"><g><path d="M 11.640625 0.328125 C 9.679688 0.328125 7.9375 -0.00390625 6.40625 -0.671875 C 4.875 -1.347656 3.664062 -2.269531 2.78125 -3.4375 C 1.894531 -4.601562 1.394531 -5.914062 1.28125 -7.375 L 8.09375 -7.375 C 8.175781 -6.59375 8.535156 -5.957031 9.171875 -5.46875 C 9.816406 -4.988281 10.613281 -4.75 11.5625 -4.75 C 12.414062 -4.75 13.078125 -4.914062 13.546875 -5.25 C 14.015625 -5.59375 14.25 -6.03125 14.25 -6.5625 C 14.25 -7.207031 13.910156 -7.679688 13.234375 -7.984375 C 12.566406 -8.296875 11.484375 -8.640625 9.984375 -9.015625 C 8.367188 -9.390625 7.023438 -9.785156 5.953125 -10.203125 C 4.878906 -10.617188 3.953125 -11.273438 3.171875 -12.171875 C 2.398438 -13.078125 2.015625 -14.296875 2.015625 -15.828125 C 2.015625 -17.109375 2.367188 -18.28125 3.078125 -19.34375 C 3.785156 -20.40625 4.832031 -21.242188 6.21875 -21.859375 C 7.601562 -22.484375 9.25 -22.796875 11.15625 -22.796875 C 13.96875 -22.796875 16.1875 -22.097656 17.8125 -20.703125 C 19.4375 -19.304688 20.367188 -17.453125 20.609375 -15.140625 L 14.25 -15.140625 C 14.144531 -15.921875 13.800781 -16.535156 13.21875 -16.984375 C 12.644531 -17.441406 11.890625 -17.671875 10.953125 -17.671875 C 10.148438 -17.671875 9.53125 -17.515625 9.09375 -17.203125 C 8.664062 -16.898438 8.453125 -16.476562 8.453125 -15.9375 C 8.453125 -15.300781 8.796875 -14.820312 9.484375 -14.5 C 10.171875 -14.175781 11.238281 -13.851562 12.6875 -13.53125 C 14.351562 -13.101562 15.707031 -12.679688 16.75 -12.265625 C 17.800781 -11.847656 18.722656 -11.175781 19.515625 -10.25 C 20.304688 -9.320312 20.710938 -8.078125 20.734375 -6.515625 C 20.734375 -5.203125 20.363281 -4.03125 19.625 -3 C 18.882812 -1.96875 17.820312 -1.15625 16.4375 -0.5625 C 15.0625 0.03125 13.460938 0.328125 11.640625 0.328125 Z M 11.640625 0.328125 "/></g></g></g><g fill="#000000" fill-opacity="1"><g transform="translate(277.961898, 70.206544)"><g/></g></g><g fill="#000000" fill-opacity="1"><g transform="translate(286.496578, 70.206544)"><g><path d="M 13.09375 -28.265625 C 16.070312 -28.265625 18.671875 -27.671875 20.890625 -26.484375 C 23.117188 -25.304688 24.84375 -23.648438 26.0625 -21.515625 C 27.289062 -19.390625 27.90625 -16.929688 27.90625 -14.140625 C 27.90625 -11.367188 27.289062 -8.910156 26.0625 -6.765625 C 24.84375 -4.617188 23.113281 -2.953125 20.875 -1.765625 C 18.632812 -0.585938 16.039062 0 13.09375 0 L 2.5 0 L 2.5 -28.265625 Z M 12.640625 -5.953125 C 15.242188 -5.953125 17.269531 -6.664062 18.71875 -8.09375 C 20.164062 -9.519531 20.890625 -11.535156 20.890625 -14.140625 C 20.890625 -16.734375 20.164062 -18.753906 18.71875 -20.203125 C 17.269531 -21.660156 15.242188 -22.390625 12.640625 -22.390625 L 9.375 -22.390625 L 9.375 -5.953125 Z M 12.640625 -5.953125 "/></g></g></g><g fill="#000000" fill-opacity="1"><g transform="translate(315.764083, 70.206544)"><g><path d="M 23.671875 -11.59375 C 23.671875 -10.945312 23.632812 -10.273438 23.5625 -9.578125 L 7.96875 -9.578125 C 8.082031 -8.179688 8.535156 -7.113281 9.328125 -6.375 C 10.117188 -5.644531 11.085938 -5.28125 12.234375 -5.28125 C 13.953125 -5.28125 15.148438 -6.003906 15.828125 -7.453125 L 23.15625 -7.453125 C 22.78125 -5.972656 22.101562 -4.640625 21.125 -3.453125 C 20.144531 -2.273438 18.914062 -1.347656 17.4375 -0.671875 C 15.957031 -0.00390625 14.304688 0.328125 12.484375 0.328125 C 10.285156 0.328125 8.328125 -0.140625 6.609375 -1.078125 C 4.890625 -2.023438 3.546875 -3.367188 2.578125 -5.109375 C 1.609375 -6.859375 1.125 -8.898438 1.125 -11.234375 C 1.125 -13.566406 1.597656 -15.601562 2.546875 -17.34375 C 3.503906 -19.09375 4.84375 -20.4375 6.5625 -21.375 C 8.28125 -22.320312 10.253906 -22.796875 12.484375 -22.796875 C 14.660156 -22.796875 16.59375 -22.335938 18.28125 -21.421875 C 19.96875 -20.503906 21.285156 -19.203125 22.234375 -17.515625 C 23.191406 -15.828125 23.671875 -13.851562 23.671875 -11.59375 Z M 16.625 -13.40625 C 16.625 -14.59375 16.222656 -15.535156 15.421875 -16.234375 C 14.617188 -16.929688 13.613281 -17.28125 12.40625 -17.28125 C 11.25 -17.28125 10.273438 -16.941406 9.484375 -16.265625 C 8.691406 -15.597656 8.203125 -14.644531 8.015625 -13.40625 Z M 16.625 -13.40625 "/></g></g></g><g fill="#000000" fill-opacity="1"><g transform="translate(340.562962, 70.206544)"><g><path d="M 16.1875 -22.703125 C 18.8125 -22.703125 20.910156 -21.847656 22.484375 -20.140625 C 24.054688 -18.441406 24.84375 -16.101562 24.84375 -13.125 L 24.84375 0 L 18 0 L 18 -12.203125 C 18 -13.703125 17.609375 -14.867188 16.828125 -15.703125 C 16.046875 -16.535156 15 -16.953125 13.6875 -16.953125 C 12.375 -16.953125 11.328125 -16.535156 10.546875 -15.703125 C 9.765625 -14.867188 9.375 -13.703125 9.375 -12.203125 L 9.375 0 L 2.5 0 L 2.5 -22.46875 L 9.375 -22.46875 L 9.375 -19.484375 C 10.070312 -20.484375 11.007812 -21.269531 12.1875 -21.84375 C 13.375 -22.414062 14.707031 -22.703125 16.1875 -22.703125 Z M 16.1875 -22.703125 "/></g></g></g></svg>