<svg xmlns="http://www.w3.org/2000/svg" xmlns:xlink="http://www.w3.org/1999/xlink" width="50" zoomAndPan="magnify" viewBox="0 0 37.5 37.499999" height="50" preserveAspectRatio="xMidYMid meet" version="1.0"><defs><clipPath id="2b36175c5f"><path d="M 3.699219 3.699219 L 33.304688 3.699219 L 33.304688 33.304688 L 3.699219 33.304688 Z M 3.699219 3.699219 " clip-rule="nonzero"/></clipPath></defs><g clip-path="url(#2b36175c5f)"><path fill="#ffffff" d="M 18.363281 3.699219 C 10.277344 3.699219 3.699219 10.277344 3.699219 18.363281 C 3.699219 26.449219 10.277344 33.027344 18.363281 33.027344 C 26.449219 33.027344 33.027344 26.449219 33.027344 18.363281 C 33.027344 10.277344 26.449219 3.699219 18.363281 3.699219 Z M 27.644531 27.035156 C 25.730469 23.769531 22.222656 21.722656 18.363281 21.722656 C 14.503906 21.722656 11 23.769531 9.085938 27.035156 C 6.960938 24.765625 5.65625 21.714844 5.65625 18.363281 C 5.65625 11.355469 11.355469 5.65625 18.363281 5.65625 C 25.371094 5.65625 31.074219 11.355469 31.074219 18.363281 C 31.074219 21.714844 29.769531 24.765625 27.644531 27.035156 Z M 27.644531 27.035156 " fill-opacity="1" fill-rule="nonzero"/></g><path fill="#ffffff" d="M 18.363281 8.035156 C 15.070312 8.035156 12.386719 10.71875 12.386719 14.011719 C 12.386719 17.308594 15.070312 19.992188 18.363281 19.992188 C 21.660156 19.992188 24.34375 17.308594 24.34375 14.011719 C 24.34375 10.71875 21.660156 8.035156 18.363281 8.035156 Z M 18.363281 8.035156 " fill-opacity="1" fill-rule="nonzero"/></svg>